<svg xmlns="http://www.w3.org/2000/svg" viewBox="0 0 1200 520"><defs><linearGradient id="g" x1="0" x2="0" y1="0" y2="1"><stop stop-color="#c9a86e"/><stop offset="1" stop-color="#8c6739"/></linearGradient><filter id="d"><feDropShadow dx="0" dy="16" stdDeviation="12" flood-color="#5d3b1f" flood-opacity=".2"/></filter></defs><g filter="url(#d)" fill="none" stroke="url(#g)" stroke-linecap="round" stroke-linejoin="round"><path d="M28 74h292c86 0 126 45 171 120 30 50 67 72 109 72s79-22 109-72c45-75 85-120 171-120h292" stroke-width="26"/><path d="M46 105h262c75 0 107 39 149 106 38 61 85 92 143 92s105-31 143-92c42-67 74-106 149-106h262" stroke-width="6" opacity=".8"/><path d="M111 78q45 67 112 0m-58 10q0 62 58 78m866-88q-45 67-112 0m58 10q0 62-58 78" stroke-width="7"/><path d="M600 34c-28 32-56 53-95 62 34 10 58 29 95 64 37-35 61-54 95-64-39-9-67-30-95-62Z" stroke-width="8"/><g stroke-width="5" opacity=".75"><path d="M350 87q42 41 72 6m-50 43q52 28 84-3M850 87q-42 41-72 6m50 43q-52 28-84-3"/><path d="M488 178q50-35 88 5m136-5q-50-35-88 5"/></g><g fill="#b89154" stroke="none" opacity=".34"><circle cx="600" cy="96" r="19"/><circle cx="223" cy="96" r="8"/><circle cx="977" cy="96" r="8"/></g></g></svg>